# xmcd CD database file
#
# Track frame offsets:
#	150
#	20520
#	48264
#	75589
#	101908
#	130602
#	159300
#	180290
#	207218
#	235804
#	258439
#	279472
#
# Disc length: 4105 seconds
#
# Revision: 1
# Processed by: cddbd v1.5.2PL0 Copyright (c) Steve Scherf et al.
# Submitted via: CDex 1.77
#
DISCID=9210070c
DTITLE=The Reese Project - Vicodin Dreams
DYEAR=2005
DGENRE=Jazz
TTITLE0=Cold Duck Time
TTITLE1=Wade In The Water
TTITLE2=Evening In Vermont
TTITLE3=Soul Sister Has Arrived
TTITLE4=Planxty Kong
TTITLE5=Scatastrophy
TTITLE6=Vicodin Dreams
TTITLE7=In The Belly Of The Blues
TTITLE8=Like Booze In The Night
TTITLE9=Afro Blue
TTITLE10=Geristic
TTITLE11=Memphis Underground
EXTD=YEAR: 2005
EXTT0=
EXTT1=
EXTT2=
EXTT3=
EXTT4=
EXTT5=
EXTT6=
EXTT7=
EXTT8=
EXTT9=
EXTT10=
EXTT11=
PLAYORDER=
